# xmcd
#
# Track frame offsets: 
#        150
#        25012
#        61172
#        95397
#        126400
#        173050
#        217092
#        252910
#        316522
#
# Disc length: 4502 seconds
#
# Revision: 1
# Processed by: cddbd v1.5.1PL0 Copyright (c) Steve Scherf et al.
# Submitted via: ExactAudioCopy v0.95a5
#
DISCID=72119409
DTITLE=Gonzalo Rubalcaba - Paseo
DYEAR=2004
DGENRE=Jazz
TTITLE0=El Guerrillero
TTITLE1=Preludio en Conga #1 - Homage To Hilario
TTITLE2=Bottoms Up
TTITLE3=Sea Change
TTITLE4=Paseo con Fula
TTITLE5=Meanwhile
TTITLE6=Santo Canto
TTITLE7=Quasar
TTITLE8=Los Büyes
EXTD=YEAR: 2004
EXTT0=
EXTT1=
EXTT2=
EXTT3=
EXTT4=
EXTT5=
EXTT6=
EXTT7=
EXTT8=
PLAYORDER=
